<?xml version="1.0" encoding="UTF-8"?>
<svg width="24px" height="783px" viewBox="0 0 24 783" version="1.1" xmlns="http://www.w3.org/2000/svg" xmlns:xlink="http://www.w3.org/1999/xlink">
    <!-- Generator: Sketch 64 (93537) - https://sketch.com -->
    <title>Path 6</title>
    <desc>Created with Sketch.</desc>
    <g id="Final" stroke="none" stroke-width="1" fill="none" fill-rule="evenodd">
        <g id="Phone-8pt-grid" transform="translate(-170.000000, -9706.000000)" fill="#E94659" fill-rule="nonzero">
            <path id="Path-6" d="M182,10478 C183.054362,10478 183.918165,10478.8159 183.994514,10479.8507 L184,10480 L184,10487 C184,10488.1046 183.104569,10489 182,10489 C180.945638,10489 180.081835,10488.1841 180.005486,10487.1493 L180,10487 L180,10480 C180,10478.8954 180.895431,10478 182,10478 Z M182,10462 C183.054362,10462 183.918165,10462.8159 183.994514,10463.8507 L184,10464 L184,10472 C184,10473.1046 183.104569,10474 182,10474 C180.945638,10474 180.081835,10473.1841 180.005486,10472.1493 L180,10472 L180,10464 C180,10462.8954 180.895431,10462 182,10462 Z M182,10446 C183.054362,10446 183.918165,10446.8159 183.994514,10447.8507 L184,10448 L184,10456 C184,10457.1046 183.104569,10458 182,10458 C180.945638,10458 180.081835,10457.1841 180.005486,10456.1493 L180,10456 L180,10448 C180,10446.8954 180.895431,10446 182,10446 Z M182,10430 C183.054362,10430 183.918165,10430.8159 183.994514,10431.8507 L184,10432 L184,10440 C184,10441.1046 183.104569,10442 182,10442 C180.945638,10442 180.081835,10441.1841 180.005486,10440.1493 L180,10440 L180,10432 C180,10430.8954 180.895431,10430 182,10430 Z M182,10414 C183.054362,10414 183.918165,10414.8159 183.994514,10415.8507 L184,10416 L184,10424 C184,10425.1046 183.104569,10426 182,10426 C180.945638,10426 180.081835,10425.1841 180.005486,10424.1493 L180,10424 L180,10416 C180,10414.8954 180.895431,10414 182,10414 Z M182,10398 C183.054362,10398 183.918165,10398.8159 183.994514,10399.8507 L184,10400 L184,10408 C184,10409.1046 183.104569,10410 182,10410 C180.945638,10410 180.081835,10409.1841 180.005486,10408.1493 L180,10408 L180,10400 C180,10398.8954 180.895431,10398 182,10398 Z M182,10382 C183.054362,10382 183.918165,10382.8159 183.994514,10383.8507 L184,10384 L184,10392 C184,10393.1046 183.104569,10394 182,10394 C180.945638,10394 180.081835,10393.1841 180.005486,10392.1493 L180,10392 L180,10384 C180,10382.8954 180.895431,10382 182,10382 Z M182,10366 C183.054362,10366 183.918165,10366.8159 183.994514,10367.8507 L184,10368 L184,10376 C184,10377.1046 183.104569,10378 182,10378 C180.945638,10378 180.081835,10377.1841 180.005486,10376.1493 L180,10376 L180,10368 C180,10366.8954 180.895431,10366 182,10366 Z M182,10350 C183.054362,10350 183.918165,10350.8159 183.994514,10351.8507 L184,10352 L184,10360 C184,10361.1046 183.104569,10362 182,10362 C180.945638,10362 180.081835,10361.1841 180.005486,10360.1493 L180,10360 L180,10352 C180,10350.8954 180.895431,10350 182,10350 Z M182,10334 C183.054362,10334 183.918165,10334.8159 183.994514,10335.8507 L184,10336 L184,10344 C184,10345.1046 183.104569,10346 182,10346 C180.945638,10346 180.081835,10345.1841 180.005486,10344.1493 L180,10344 L180,10336 C180,10334.8954 180.895431,10334 182,10334 Z M182,10318 C183.054362,10318 183.918165,10318.8159 183.994514,10319.8507 L184,10320 L184,10328 C184,10329.1046 183.104569,10330 182,10330 C180.945638,10330 180.081835,10329.1841 180.005486,10328.1493 L180,10328 L180,10320 C180,10318.8954 180.895431,10318 182,10318 Z M182,10302 C183.054362,10302 183.918165,10302.8159 183.994514,10303.8507 L184,10304 L184,10312 C184,10313.1046 183.104569,10314 182,10314 C180.945638,10314 180.081835,10313.1841 180.005486,10312.1493 L180,10312 L180,10304 C180,10302.8954 180.895431,10302 182,10302 Z M182,10286 C183.054362,10286 183.918165,10286.8159 183.994514,10287.8507 L184,10288 L184,10296 C184,10297.1046 183.104569,10298 182,10298 C180.945638,10298 180.081835,10297.1841 180.005486,10296.1493 L180,10296 L180,10288 C180,10286.8954 180.895431,10286 182,10286 Z M182,10270 C183.054362,10270 183.918165,10270.8159 183.994514,10271.8507 L184,10272 L184,10280 C184,10281.1046 183.104569,10282 182,10282 C180.945638,10282 180.081835,10281.1841 180.005486,10280.1493 L180,10280 L180,10272 C180,10270.8954 180.895431,10270 182,10270 Z M182,10254 C183.054362,10254 183.918165,10254.8159 183.994514,10255.8507 L184,10256 L184,10264 C184,10265.1046 183.104569,10266 182,10266 C180.945638,10266 180.081835,10265.1841 180.005486,10264.1493 L180,10264 L180,10256 C180,10254.8954 180.895431,10254 182,10254 Z M182,10238 C183.054362,10238 183.918165,10238.8159 183.994514,10239.8507 L184,10240 L184,10248 C184,10249.1046 183.104569,10250 182,10250 C180.945638,10250 180.081835,10249.1841 180.005486,10248.1493 L180,10248 L180,10240 C180,10238.8954 180.895431,10238 182,10238 Z M182,10222 C183.054362,10222 183.918165,10222.8159 183.994514,10223.8507 L184,10224 L184,10232 C184,10233.1046 183.104569,10234 182,10234 C180.945638,10234 180.081835,10233.1841 180.005486,10232.1493 L180,10232 L180,10224 C180,10222.8954 180.895431,10222 182,10222 Z M182,10206 C183.054362,10206 183.918165,10206.8159 183.994514,10207.8507 L184,10208 L184,10216 C184,10217.1046 183.104569,10218 182,10218 C180.945638,10218 180.081835,10217.1841 180.005486,10216.1493 L180,10216 L180,10208 C180,10206.8954 180.895431,10206 182,10206 Z M182,10190 C183.054362,10190 183.918165,10190.8159 183.994514,10191.8507 L184,10192 L184,10200 C184,10201.1046 183.104569,10202 182,10202 C180.945638,10202 180.081835,10201.1841 180.005486,10200.1493 L180,10200 L180,10192 C180,10190.8954 180.895431,10190 182,10190 Z M182,10174 C183.054362,10174 183.918165,10174.8159 183.994514,10175.8507 L184,10176 L184,10184 C184,10185.1046 183.104569,10186 182,10186 C180.945638,10186 180.081835,10185.1841 180.005486,10184.1493 L180,10184 L180,10176 C180,10174.8954 180.895431,10174 182,10174 Z M182,10158 C183.054362,10158 183.918165,10158.8159 183.994514,10159.8507 L184,10160 L184,10168 C184,10169.1046 183.104569,10170 182,10170 C180.945638,10170 180.081835,10169.1841 180.005486,10168.1493 L180,10168 L180,10160 C180,10158.8954 180.895431,10158 182,10158 Z M182,10142 C183.054362,10142 183.918165,10142.8159 183.994514,10143.8507 L184,10144 L184,10152 C184,10153.1046 183.104569,10154 182,10154 C180.945638,10154 180.081835,10153.1841 180.005486,10152.1493 L180,10152 L180,10144 C180,10142.8954 180.895431,10142 182,10142 Z M182,10126 C183.054362,10126 183.918165,10126.8159 183.994514,10127.8507 L184,10128 L184,10136 C184,10137.1046 183.104569,10138 182,10138 C180.945638,10138 180.081835,10137.1841 180.005486,10136.1493 L180,10136 L180,10128 C180,10126.8954 180.895431,10126 182,10126 Z M182,10110 C183.054362,10110 183.918165,10110.8159 183.994514,10111.8507 L184,10112 L184,10120 C184,10121.1046 183.104569,10122 182,10122 C180.945638,10122 180.081835,10121.1841 180.005486,10120.1493 L180,10120 L180,10112 C180,10110.8954 180.895431,10110 182,10110 Z M182,10094 C183.054362,10094 183.918165,10094.8159 183.994514,10095.8507 L184,10096 L184,10104 C184,10105.1046 183.104569,10106 182,10106 C180.945638,10106 180.081835,10105.1841 180.005486,10104.1493 L180,10104 L180,10096 C180,10094.8954 180.895431,10094 182,10094 Z M182,10078 C183.054362,10078 183.918165,10078.8159 183.994514,10079.8507 L184,10080 L184,10088 C184,10089.1046 183.104569,10090 182,10090 C180.945638,10090 180.081835,10089.1841 180.005486,10088.1493 L180,10088 L180,10080 C180,10078.8954 180.895431,10078 182,10078 Z M182,10062 C183.054362,10062 183.918165,10062.8159 183.994514,10063.8507 L184,10064 L184,10072 C184,10073.1046 183.104569,10074 182,10074 C180.945638,10074 180.081835,10073.1841 180.005486,10072.1493 L180,10072 L180,10064 C180,10062.8954 180.895431,10062 182,10062 Z M182,10046 C183.054362,10046 183.918165,10046.8159 183.994514,10047.8507 L184,10048 L184,10056 C184,10057.1046 183.104569,10058 182,10058 C180.945638,10058 180.081835,10057.1841 180.005486,10056.1493 L180,10056 L180,10048 C180,10046.8954 180.895431,10046 182,10046 Z M182,10030 C183.054362,10030 183.918165,10030.8159 183.994514,10031.8507 L184,10032 L184,10040 C184,10041.1046 183.104569,10042 182,10042 C180.945638,10042 180.081835,10041.1841 180.005486,10040.1493 L180,10040 L180,10032 C180,10030.8954 180.895431,10030 182,10030 Z M182,10014 C183.054362,10014 183.918165,10014.8159 183.994514,10015.8507 L184,10016 L184,10024 C184,10025.1046 183.104569,10026 182,10026 C180.945638,10026 180.081835,10025.1841 180.005486,10024.1493 L180,10024 L180,10016 C180,10014.8954 180.895431,10014 182,10014 Z M182,9998 C183.054362,9998 183.918165,9998.81588 183.994514,9999.85074 L184,10000 L184,10008 C184,10009.1046 183.104569,10010 182,10010 C180.945638,10010 180.081835,10009.1841 180.005486,10008.1493 L180,10008 L180,10000 C180,9998.89543 180.895431,9998 182,9998 Z M182,9982 C183.054362,9982 183.918165,9982.81588 183.994514,9983.85074 L184,9984 L184,9992 C184,9993.10457 183.104569,9994 182,9994 C180.945638,9994 180.081835,9993.18412 180.005486,9992.14926 L180,9992 L180,9984 C180,9982.89543 180.895431,9982 182,9982 Z M182,9966 C183.054362,9966 183.918165,9966.81588 183.994514,9967.85074 L184,9968 L184,9976 C184,9977.10457 183.104569,9978 182,9978 C180.945638,9978 180.081835,9977.18412 180.005486,9976.14926 L180,9976 L180,9968 C180,9966.89543 180.895431,9966 182,9966 Z M182,9950 C183.054362,9950 183.918165,9950.81588 183.994514,9951.85074 L184,9952 L184,9960 C184,9961.10457 183.104569,9962 182,9962 C180.945638,9962 180.081835,9961.18412 180.005486,9960.14926 L180,9960 L180,9952 C180,9950.89543 180.895431,9950 182,9950 Z M182,9934 C183.054362,9934 183.918165,9934.81588 183.994514,9935.85074 L184,9936 L184,9944 C184,9945.10457 183.104569,9946 182,9946 C180.945638,9946 180.081835,9945.18412 180.005486,9944.14926 L180,9944 L180,9936 C180,9934.89543 180.895431,9934 182,9934 Z M182,9918 C183.054362,9918 183.918165,9918.81588 183.994514,9919.85074 L184,9920 L184,9928 C184,9929.10457 183.104569,9930 182,9930 C180.945638,9930 180.081835,9929.18412 180.005486,9928.14926 L180,9928 L180,9920 C180,9918.89543 180.895431,9918 182,9918 Z M182,9902 C183.054362,9902 183.918165,9902.81588 183.994514,9903.85074 L184,9904 L184,9912 C184,9913.10457 183.104569,9914 182,9914 C180.945638,9914 180.081835,9913.18412 180.005486,9912.14926 L180,9912 L180,9904 C180,9902.89543 180.895431,9902 182,9902 Z M182,9886 C183.054362,9886 183.918165,9886.81588 183.994514,9887.85074 L184,9888 L184,9896 C184,9897.10457 183.104569,9898 182,9898 C180.945638,9898 180.081835,9897.18412 180.005486,9896.14926 L180,9896 L180,9888 C180,9886.89543 180.895431,9886 182,9886 Z M182,9870 C183.054362,9870 183.918165,9870.81588 183.994514,9871.85074 L184,9872 L184,9880 C184,9881.10457 183.104569,9882 182,9882 C180.945638,9882 180.081835,9881.18412 180.005486,9880.14926 L180,9880 L180,9872 C180,9870.89543 180.895431,9870 182,9870 Z M182,9854 C183.054362,9854 183.918165,9854.81588 183.994514,9855.85074 L184,9856 L184,9864 C184,9865.10457 183.104569,9866 182,9866 C180.945638,9866 180.081835,9865.18412 180.005486,9864.14926 L180,9864 L180,9856 C180,9854.89543 180.895431,9854 182,9854 Z M182,9838 C183.054362,9838 183.918165,9838.81588 183.994514,9839.85074 L184,9840 L184,9848 C184,9849.10457 183.104569,9850 182,9850 C180.945638,9850 180.081835,9849.18412 180.005486,9848.14926 L180,9848 L180,9840 C180,9838.89543 180.895431,9838 182,9838 Z M182,9822 C183.054362,9822 183.918165,9822.81588 183.994514,9823.85074 L184,9824 L184,9832 C184,9833.10457 183.104569,9834 182,9834 C180.945638,9834 180.081835,9833.18412 180.005486,9832.14926 L180,9832 L180,9824 C180,9822.89543 180.895431,9822 182,9822 Z M182,9806 C183.054362,9806 183.918165,9806.81588 183.994514,9807.85074 L184,9808 L184,9816 C184,9817.10457 183.104569,9818 182,9818 C180.945638,9818 180.081835,9817.18412 180.005486,9816.14926 L180,9816 L180,9808 C180,9806.89543 180.895431,9806 182,9806 Z M182,9790 C183.054362,9790 183.918165,9790.81588 183.994514,9791.85074 L184,9792 L184,9800 C184,9801.10457 183.104569,9802 182,9802 C180.945638,9802 180.081835,9801.18412 180.005486,9800.14926 L180,9800 L180,9792 C180,9790.89543 180.895431,9790 182,9790 Z M182,9774 C183.054362,9774 183.918165,9774.81588 183.994514,9775.85074 L184,9776 L184,9784 C184,9785.10457 183.104569,9786 182,9786 C180.945638,9786 180.081835,9785.18412 180.005486,9784.14926 L180,9784 L180,9776 C180,9774.89543 180.895431,9774 182,9774 Z M182,9758 C183.054362,9758 183.918165,9758.81588 183.994514,9759.85074 L184,9760 L184,9768 C184,9769.10457 183.104569,9770 182,9770 C180.945638,9770 180.081835,9769.18412 180.005486,9768.14926 L180,9768 L180,9760 C180,9758.89543 180.895431,9758 182,9758 Z M182,9742 C183.054362,9742 183.918165,9742.81588 183.994514,9743.85074 L184,9744 L184,9752 C184,9753.10457 183.104569,9754 182,9754 C180.945638,9754 180.081835,9753.18412 180.005486,9752.14926 L180,9752 L180,9744 C180,9742.89543 180.895431,9742 182,9742 Z M182,9706 C188.627417,9706 194,9711.37258 194,9718 C194,9723.94571 189.675838,9728.88146 184.000809,9729.83395 L184,9736 C184,9737.10457 183.104569,9738 182,9738 C180.945638,9738 180.081835,9737.18412 180.005486,9736.14926 L180,9736 L180.000187,9729.83411 C174.324668,9728.88204 170,9723.94606 170,9718 C170,9711.37258 175.372583,9706 182,9706 Z M182,9710 C177.581722,9710 174,9713.58172 174,9718 C174,9722.41828 177.581722,9726 182,9726 C186.418278,9726 190,9722.41828 190,9718 C190,9713.58172 186.418278,9710 182,9710 Z"></path>
        </g>
    </g>
</svg>